<?xml version="1.0" encoding="utf-8"?>
<!-- Generator: Adobe Illustrator 26.3.1, SVG Export Plug-In . SVG Version: 6.00 Build 0)  -->
<svg version="1.1" id="Layer_1" xmlns="http://www.w3.org/2000/svg" xmlns:xlink="http://www.w3.org/1999/xlink" x="0px" y="0px"
	 viewBox="0 0 24 24" style="enable-background:new 0 0 24 24;" xml:space="preserve">
<style type="text/css">
	.st0{fill:#FFFFFF;}
	.st1{fill:#FFDD00;}
</style>
<g>
	<circle class="st0" cx="12" cy="12" r="11.5"/>
	<polygon points="12.5,9 12,9 11.5,9 9.5,9 9.5,10 11.5,10 11.5,17 9.5,17 9.5,18 11.5,18 12.5,18 14.5,18 14.5,17 12.5,17 	"/>
	<circle cx="12" cy="6" r="1"/>
	<g>
		<path d="M12,1c6.065,0,11,4.935,11,11s-4.935,11-11,11S1,18.065,1,12S5.935,1,12,1 M12,0C5.373,0,0,5.373,0,12s5.373,12,12,12
			s12-5.373,12-12S18.627,0,12,0L12,0z"/>
	</g>
</g>
</svg>
