<?xml version="1.0" encoding="utf-8"?>
<!-- Generator: Adobe Illustrator 26.3.1, SVG Export Plug-In . SVG Version: 6.00 Build 0)  -->
<svg version="1.1" id="Layer_1" xmlns="http://www.w3.org/2000/svg" xmlns:xlink="http://www.w3.org/1999/xlink" x="0px" y="0px"
	 viewBox="0 0 24 24" style="enable-background:new 0 0 24 24;" xml:space="preserve">
<style type="text/css">
	.st0{fill:#FFFFFF;}
	.st1{fill:#FFDD00;}
</style>
<g>
	<path class="st1" d="M19.373,5.533c-0.403-0.977-0.979-1.854-1.711-2.605c-0.734-0.753-1.589-1.346-2.543-1.759
		c-1.975-0.858-4.262-0.858-6.236,0c-0.954,0.414-1.81,1.006-2.543,1.759C5.605,3.68,5.03,4.556,4.627,5.533
		C4.211,6.542,4,7.613,4,8.721c0.006,1.471,0.458,2.929,1.309,4.217L12,23.078l6.691-10.14c0.851-1.288,1.303-2.735,1.309-4.187
		C20,7.624,19.789,6.542,19.373,5.533z M12,12c-1.93,0-3.5-1.57-3.5-3.5S10.07,5,12,5s3.5,1.57,3.5,3.5S13.93,12,12,12z"/>
	<path d="M19.832,5.324c-0.428-1.039-1.041-1.972-1.821-2.772c-0.78-0.801-1.689-1.43-2.702-1.869c-2.095-0.91-4.522-0.91-6.617,0
		C7.679,1.122,6.77,1.751,5.99,2.551c-0.78,0.8-1.393,1.733-1.821,2.772C3.725,6.398,3.5,7.541,3.5,8.755
		c0.006,1.556,0.49,3.107,1.398,4.483L12,24l7.102-10.762c0.909-1.376,1.393-2.927,1.398-4.519
		C20.5,7.541,20.275,6.398,19.832,5.324z M18.273,12.663L12,22.17l-6.273-9.507c-0.797-1.208-1.221-2.56-1.227-3.944
		c0-1.04,0.198-2.047,0.589-2.995c0.378-0.917,0.918-1.74,1.607-2.447C7.385,2.57,8.188,2.015,9.081,1.627
		C10.005,1.226,10.987,1.023,12,1.023s1.995,0.203,2.919,0.605c0.894,0.388,1.696,0.943,2.384,1.649
		c0.689,0.706,1.229,1.53,1.607,2.447C19.302,6.672,19.5,7.679,19.5,8.751C19.495,10.103,19.071,11.455,18.273,12.663z"/>
	<path d="M12,5.5c1.657,0,3,1.343,3,3s-1.343,3-3,3s-3-1.343-3-3S10.343,5.5,12,5.5 M12,4.5c-2.206,0-4,1.794-4,4s1.794,4,4,4
		s4-1.794,4-4S14.206,4.5,12,4.5L12,4.5z"/>
</g>
</svg>
