<?xml version="1.0" encoding="utf-8"?>
<!-- Generator: Adobe Illustrator 26.3.1, SVG Export Plug-In . SVG Version: 6.00 Build 0)  -->
<svg version="1.1" id="Layer_1" xmlns="http://www.w3.org/2000/svg" xmlns:xlink="http://www.w3.org/1999/xlink" x="0px" y="0px"
	 viewBox="0 0 24 24" style="enable-background:new 0 0 24 24;" xml:space="preserve">
<style type="text/css">
	.st0{fill:#FFFFFF;}
	.st1{fill:#FFDD00;}
</style>
<g>
	<circle class="st0" cx="12" cy="12" r="11.5"/>
	<path d="M17.625,9.5c-0.358,0-0.727,0.063-1.097,0.188L14.934,6.5h-2.309v1h1.691l0.25,0.5H9.309l-0.25-0.5h1.191v-1H7.375v1h0.566
		l0.491,0.982L7.686,9.76C7.264,9.587,6.824,9.5,6.375,9.5c-1.93,0-3.5,1.57-3.5,3.5s1.57,3.5,3.5,3.5c1.737,0,3.199-1.282,3.447-3
		h1.635l3.906-3.906l0.269,0.537c-0.945,0.658-1.506,1.722-1.506,2.869c0,1.93,1.57,3.5,3.5,3.5s3.5-1.57,3.5-3.5
		S19.555,9.5,17.625,9.5z M17.625,15.5c-1.378,0-2.5-1.122-2.5-2.5c0-0.765,0.356-1.489,0.959-1.963l1.15,2.299l0.894-0.448
		l-1.146-2.292c0.227-0.064,0.438-0.096,0.643-0.096c1.378,0,2.5,1.122,2.5,2.5S19.003,15.5,17.625,15.5z M8.966,9.55l1.475,2.95
		H9.822c-0.127-0.876-0.586-1.678-1.276-2.229L8.966,9.55z M8.813,12.5H7.246l0.789-1.353C8.435,11.505,8.707,11.978,8.813,12.5z
		 M6.375,10.5c0.271,0,0.54,0.045,0.801,0.135L5.504,13.5h3.309c-0.236,1.15-1.259,2-2.438,2c-1.378,0-2.5-1.122-2.5-2.5
		S4.997,10.5,6.375,10.5z M14.543,9l-3.156,3.156L9.809,9H14.543z"/>
	<g>
		<path d="M12,1c6.065,0,11,4.935,11,11s-4.935,11-11,11S1,18.065,1,12S5.935,1,12,1 M12,0C5.373,0,0,5.373,0,12s5.373,12,12,12
			s12-5.373,12-12S18.627,0,12,0L12,0z"/>
	</g>
</g>
</svg>
